<svg width="493" height="78" viewBox="0 0 493 78" fill="none" xmlns="http://www.w3.org/2000/svg">
<rect x="1.5" y="1.5" width="490" height="75" rx="27.5" stroke="#FDFDFD" stroke-width="3"/>
<path d="M27.04 51L38.592 27.64H38.944L50.24 51H44.576L43.136 47.704H33.952L32.48 51H27.04ZM35.52 43.8H41.472L38.528 36.696L35.52 43.8ZM51.9358 51V28.344H57.9518C66.6878 28.344 71.4878 32.888 71.4878 39.672C71.4878 43.864 69.5678 47.192 65.8878 49.304C63.4878 50.68 60.9918 51 57.9518 51H51.9358ZM57.2798 46.136H58.4638C63.3278 46.136 66.0158 43.608 66.0158 39.672C66.0158 35.736 63.3278 33.176 58.4638 33.176H57.2798V46.136ZM79.4083 39.672C79.4083 43.672 82.0642 46.616 85.3923 46.616C88.7203 46.616 91.3763 43.704 91.3763 39.672C91.3763 35.608 88.7203 32.696 85.3923 32.696C82.0642 32.696 79.4083 35.64 79.4083 39.672ZM76.3683 52.792C76.6562 51.256 77.1363 49.784 77.7763 48.312C75.1843 45.976 73.8403 42.968 73.8403 39.512C73.8403 36.856 74.6723 34.296 76.2403 32.216C78.4483 29.272 81.7763 27.608 85.3923 27.608C87.9523 27.608 90.3843 28.44 92.4323 30.04C95.3443 32.312 96.9443 35.736 96.9443 39.672C96.9443 42.776 95.6963 45.816 93.4883 47.96C91.4722 49.944 88.8483 51.032 86.4163 51.032C85.6163 51.032 84.7203 50.84 83.6643 50.616L83.6323 50.936C87.0563 51.704 90.3523 53.56 94.6083 53.784L93.2963 57.848C90.0323 57.592 87.2163 56.248 84.2403 55C82.1283 54.104 79.7283 53.048 76.3683 52.792ZM105.837 28.344V40.792C105.837 44.792 107.309 46.776 110.285 46.776C113.101 46.776 114.701 44.952 114.701 41.336V28.344H119.533V41.336C119.533 48.088 115.821 51.736 110.029 51.736C104.173 51.736 100.493 48.12 100.493 41.368V28.344H105.837ZM124.562 51V28.344H129.97V51H124.562ZM135.248 51V28.344H141.072C143.952 28.344 146.192 28.536 148.144 29.944C149.84 31.16 150.8 33.048 150.8 35C150.8 37.848 149.328 40.056 146.576 41.272L153.488 51H147.312L141.264 42.104H140.496V51H135.248ZM141.392 32.472H140.496V38.744H141.648C144.4 38.744 145.84 37.592 145.84 35.544C145.84 33.272 144.368 32.472 141.392 32.472ZM155.687 51V28.344H161.095V51H155.687ZM180.231 51V33.08H173.031V28.344H192.807V33.08H185.639V51H180.231ZM200.525 28.344V40.792C200.525 44.792 201.997 46.776 204.973 46.776C207.789 46.776 209.389 44.952 209.389 41.336V28.344H214.221V41.336C214.221 48.088 210.509 51.736 204.717 51.736C198.861 51.736 195.181 48.12 195.181 41.368V28.344H200.525ZM228.436 51V28.344H242.388V33.016H233.684V37.112H241.14V41.752H233.684V46.232H242.516V51H228.436ZM246.655 51V27.608H247.167L261.279 40.824V28.344H266.271V51.864H265.791L251.647 38.648V51H246.655ZM276.075 51V33.08H268.875V28.344H288.651V33.08H281.483V51H276.075ZM291.248 51V28.344H297.072C299.952 28.344 302.192 28.536 304.144 29.944C305.84 31.16 306.8 33.048 306.8 35C306.8 37.848 305.328 40.056 302.576 41.272L309.488 51H303.312L297.264 42.104H296.496V51H291.248ZM297.392 32.472H296.496V38.744H297.648C300.4 38.744 301.84 37.592 301.84 35.544C301.84 33.272 300.368 32.472 297.392 32.472ZM308.071 51L319.623 27.64H319.975L331.271 51H325.607L324.167 47.704H314.983L313.511 51H308.071ZM316.551 43.8H322.503L319.559 36.696L316.551 43.8ZM332.967 51V28.344H338.983C347.719 28.344 352.519 32.888 352.519 39.672C352.519 43.864 350.599 47.192 346.919 49.304C344.519 50.68 342.023 51 338.983 51H332.967ZM338.311 46.136H339.495C344.359 46.136 347.047 43.608 347.047 39.672C347.047 35.736 344.359 33.176 339.495 33.176H338.311V46.136ZM352.727 51L364.28 27.64H364.632L375.928 51H370.264L368.824 47.704H359.64L358.168 51H352.727ZM361.208 43.8H367.16L364.216 36.696L361.208 43.8ZM383.321 51L394.873 27.64H395.225L406.521 51H400.857L399.417 47.704H390.233L388.761 51H383.321ZM391.801 43.8H397.753L394.809 36.696L391.801 43.8ZM412.377 39.672C412.377 43.672 415.033 46.616 418.361 46.616C421.689 46.616 424.345 43.704 424.345 39.672C424.345 35.608 421.689 32.696 418.361 32.696C415.033 32.696 412.377 35.64 412.377 39.672ZM409.337 52.792C409.625 51.256 410.105 49.784 410.745 48.312C408.153 45.976 406.809 42.968 406.809 39.512C406.809 36.856 407.641 34.296 409.209 32.216C411.417 29.272 414.745 27.608 418.361 27.608C420.921 27.608 423.353 28.44 425.401 30.04C428.313 32.312 429.913 35.736 429.913 39.672C429.913 42.776 428.665 45.816 426.457 47.96C424.441 49.944 421.817 51.032 419.385 51.032C418.585 51.032 417.689 50.84 416.633 50.616L416.601 50.936C420.025 51.704 423.321 53.56 427.577 53.784L426.265 57.848C423.001 57.592 420.185 56.248 417.209 55C415.097 54.104 412.697 53.048 409.337 52.792ZM438.806 28.344V40.792C438.806 44.792 440.278 46.776 443.254 46.776C446.07 46.776 447.67 44.952 447.67 41.336V28.344H452.502V41.336C452.502 48.088 448.79 51.736 442.998 51.736C437.142 51.736 433.462 48.12 433.462 41.368V28.344H438.806ZM457.531 51V28.344H462.939V51H457.531Z" fill="white"/>
</svg>
